<?xml version="1.0" encoding="UTF-8" standalone="no"?>
<!-- Created with Inkscape (http://www.inkscape.org/) -->

<svg
   xmlns:dc="http://purl.org/dc/elements/1.1/"
   xmlns:cc="http://creativecommons.org/ns#"
   xmlns:rdf="http://www.w3.org/1999/02/22-rdf-syntax-ns#"
   xmlns:svg="http://www.w3.org/2000/svg"
   xmlns="http://www.w3.org/2000/svg"
   xmlns:xlink="http://www.w3.org/1999/xlink"
   xmlns:sodipodi="http://sodipodi.sourceforge.net/DTD/sodipodi-0.dtd"
   xmlns:inkscape="http://www.inkscape.org/namespaces/inkscape"
   width="161.87198mm"
   height="88.637604mm"
   viewBox="0 0 161.87198 88.637604"
   id="svg5190"
   version="1.1"
   inkscape:version="0.91+devel+osxmenu r12922"
   sodipodi:docname="infinite.svg">
  <defs
     id="defs5192">
    <linearGradient
       inkscape:collect="always"
       xlink:href="#linearGradient4221"
       id="linearGradient4219"
       x1="556.19507"
       y1="933.92639"
       x2="1294.166"
       y2="501.92639"
       gradientUnits="userSpaceOnUse"
       gradientTransform="matrix(0.40394686,0,0,0.40394686,373.54787,498.67217)" />
    <linearGradient
       inkscape:collect="always"
       id="linearGradient4221">
      <stop
         style="stop-color:#32d2a7;stop-opacity:1"
         offset="0"
         id="stop4223" />
      <stop
         style="stop-color:#ff2dd6;stop-opacity:0.82722515"
         offset="1"
         id="stop4225" />
    </linearGradient>
    <linearGradient
       inkscape:collect="always"
       xlink:href="#linearGradient4221"
       id="linearGradient4219-3"
       x1="556.19507"
       y1="933.92639"
       x2="1294.166"
       y2="501.92639"
       gradientUnits="userSpaceOnUse"
       gradientTransform="matrix(0.40394685,0,0,0.40394687,348.71309,186.09098)" />
    <linearGradient
       inkscape:collect="always"
       xlink:href="#linearGradient4221"
       id="linearGradient4219-3-2"
       x1="556.19507"
       y1="933.92639"
       x2="1294.166"
       y2="501.92639"
       gradientUnits="userSpaceOnUse"
       gradientTransform="matrix(0.40394685,0,0,0.40394689,848.24822,276.2017)" />
    <linearGradient
       inkscape:collect="always"
       xlink:href="#linearGradient4221"
       id="linearGradient4219-3-0"
       x1="556.19507"
       y1="933.92639"
       x2="1294.166"
       y2="501.92639"
       gradientUnits="userSpaceOnUse"
       gradientTransform="matrix(0.277304,0,0,0.27730403,855.52395,246.89061)" />
    <linearGradient
       inkscape:collect="always"
       xlink:href="#linearGradient4221"
       id="linearGradient4219-3-3"
       x1="556.19507"
       y1="933.92639"
       x2="1294.166"
       y2="501.92639"
       gradientUnits="userSpaceOnUse"
       gradientTransform="matrix(0.27185768,0,0,0.2718577,538.27418,429.10577)" />
    <linearGradient
       inkscape:collect="always"
       xlink:href="#linearGradient4221"
       id="linearGradient4219-3-0-5"
       x1="556.19507"
       y1="933.92639"
       x2="1294.166"
       y2="501.92639"
       gradientUnits="userSpaceOnUse"
       gradientTransform="matrix(0.277304,0,0,0.27730403,934.17621,537.80501)" />
    <linearGradient
       inkscape:collect="always"
       xlink:href="#linearGradient4221"
       id="linearGradient4219-3-0-5-7"
       x1="556.19507"
       y1="933.92639"
       x2="1294.166"
       y2="501.92639"
       gradientUnits="userSpaceOnUse"
       gradientTransform="matrix(0.277304,0,0,0.27730403,1105.2424,627.83579)" />
  </defs>
  <sodipodi:namedview
     id="base"
     pagecolor="#ffffff"
     bordercolor="#666666"
     borderopacity="1.0"
     inkscape:pageopacity="0.0"
     inkscape:pageshadow="2"
     inkscape:zoom="0.98994949"
     inkscape:cx="261.89542"
     inkscape:cy="186.93891"
     inkscape:document-units="mm"
     inkscape:current-layer="layer2"
     showgrid="false"
     fit-margin-top="0"
     fit-margin-left="0"
     fit-margin-right="0"
     fit-margin-bottom="0"
     inkscape:window-width="1440"
     inkscape:window-height="874"
     inkscape:window-x="0"
     inkscape:window-y="0"
     inkscape:window-maximized="0" />
  <metadata
     id="metadata5195">
    <rdf:RDF>
      <cc:Work
         rdf:about="">
        <dc:format>image/svg+xml</dc:format>
        <dc:type
           rdf:resource="http://purl.org/dc/dcmitype/StillImage" />
        <dc:title></dc:title>
      </cc:Work>
    </rdf:RDF>
  </metadata>
  <g
     inkscape:label="Layer 1"
     inkscape:groupmode="layer"
     id="layer1"
     transform="translate(-24.557356,-110.43699)" />
  <g
     inkscape:groupmode="layer"
     id="layer2"
     inkscape:label="Layer 2"
     transform="translate(-24.557356,-110.43699)"
     style="display:inline;opacity:0.43">
    <g
       style="display:inline;opacity:1"
       id="g4227"
       transform="matrix(0.15416807,0,0,0.15221197,-54.510834,57.93159)">
      <path
         id="path4199"
         d="m 964.58917,671.79968 -48.80183,13.0549 -48.80102,13.05569 -0.48049,6.43238 c -0.42924,5.74916 -1.03714,6.57528 -5.731,7.78387 l -5.25131,1.35227 0,48.50045 0,48.50045 5.65526,-1.06115 c 5.61486,-1.05338 5.65525,-1.01877 5.65525,4.77478 0,3.20929 0.28378,5.83435 0.63117,5.83435 0.34744,0 22.24035,-5.81684 48.65035,-12.9263 26.41001,-7.10947 48.30219,-12.9263 48.64958,-12.9263 0.34744,0 0.63194,-2.88034 0.63194,-6.40082 0,-6.10044 0.30336,-6.48261 6.46315,-8.14127 l 6.46315,-1.73965 0,-48.4113 c 0,-26.62623 -0.5505,-48.41208 -1.22287,-48.41208 -0.67237,0 -3.54221,0.66546 -6.37715,1.47851 -5.10205,1.46325 -5.15909,1.41635 -5.64423,-4.63513 l -0.48995,-6.11365 z m -39.34931,33.76586 c 5.42816,-0.0142 4.58266,7.19675 4.23514,37.25305 l -0.43315,37.51104 -12.55152,3.48562 -12.55079,3.48562 0.43239,-38.16114 0.43311,-38.16194 9.69472,-2.70612 c 5.03839,-1.40631 8.44823,-2.70012 10.7401,-2.70613 z m -98.96617,3.37043 c -0.27994,0.0176 -0.60257,0.0925 -0.97279,0.20276 -1.59559,0.47525 -25.0777,6.74863 -52.18254,13.94169 -27.10481,7.19306 -50.55393,13.45717 -52.10913,13.9196 -2.04735,0.60877 -2.82762,2.5294 -2.82762,6.96098 0,5.51921 -0.51593,6.2685 -5.25131,7.62608 l -5.25131,1.50533 -0.42762,48.81761 c -0.23521,26.84972 -0.23082,48.81761 0.0103,48.81761 0.24107,0 2.79657,-0.67632 5.67893,-1.50297 l 5.24105,-1.50296 0,6.19885 0,6.19884 20.60129,-5.51087 c 11.33071,-3.03082 36.05228,-9.63459 54.93675,-14.67542 l 34.33549,-9.16534 0,-11.78231 c 0,-8.73482 -0.52239,-11.59472 -2.01974,-11.05804 -4.44665,1.59379 -68.96447,18.56341 -70.57707,18.56341 -1.08225,0 -1.72938,-4.74384 -1.72938,-12.67226 l 0,-12.67304 13.33025,-3.57398 c 7.33164,-1.96591 15.6933,-4.31838 18.58152,-5.22686 l 5.2513,-1.65129 0,-11.18506 c 0,-6.15187 -0.54532,-11.17634 -1.21184,-11.16535 -0.66651,0.011 -7.75097,1.8288 -15.74286,4.03947 -21.13994,5.84759 -20.20837,6.22291 -20.20837,-8.14994 0,-9.63199 0.5356,-12.37487 2.56882,-13.1551 1.41285,-0.54215 17.95447,-5.10545 36.75917,-10.14127 l 34.1903,-9.15587 0.47735,-11.75312 c 0.35199,-8.66687 0.27032,-10.95571 -1.18502,-11.08881 -0.084,-0.008 -0.17261,-0.008 -0.26588,-0.002 z m -159.39333,43.18208 c -0.66652,-0.0258 -25.38305,6.33639 -54.92495,14.13814 l -53.7123,14.18469 -0.0126,60.99597 c -0.007,33.54779 0.4135,60.99598 0.93334,60.99598 0.51984,0 11.06285,-2.66299 23.42892,-5.91798 l 22.48375,-5.91798 0,-49.64918 0,-49.64995 12.63201,-3.4083 c 6.94782,-1.87472 13.1282,-3.4091 13.7342,-3.4091 0.60599,0 1.10217,22.19053 1.10217,49.31229 l 0,49.31308 3.63552,-0.94123 c 1.99954,-0.51753 12.36078,-3.30645 23.02498,-6.19727 l 19.38944,-5.25604 0.42446,-55.12692 0.42525,-55.12691 -5.26156,1.50928 c -2.89396,0.82997 -5.44852,1.50849 -5.67656,1.50849 -0.22804,0 -0.4142,-2.54487 -0.4142,-5.65526 0,-3.11039 -0.54533,-5.67603 -1.21184,-5.7018 z"
         style="color:#000000;clip-rule:nonzero;display:inline;overflow:visible;visibility:visible;opacity:1;isolation:auto;mix-blend-mode:normal;color-interpolation:sRGB;color-interpolation-filters:linearRGB;solid-color:#000000;solid-opacity:1;fill:url(#linearGradient4219);fill-opacity:1;fill-rule:nonzero;stroke:#a7ff00;stroke-width:4.03946877;stroke-linecap:butt;stroke-linejoin:miter;stroke-miterlimit:4;stroke-dasharray:none;stroke-dashoffset:0;stroke-opacity:1;color-rendering:auto;image-rendering:auto;shape-rendering:auto;text-rendering:auto;enable-background:accumulate"
         inkscape:connector-curvature="0" />
      <path
         id="path4199-4"
         d="m 939.75446,359.21849 -48.80186,13.0549 -48.8011,13.05569 -0.4805,6.43238 c -0.4292,5.74916 -1.0371,6.57528 -5.7309,7.78387 l -5.2514,1.35227 0,48.50045 0,48.50045 5.6553,-1.06115 c 5.6149,-1.05338 5.6553,-1.01877 5.6553,4.77478 0,3.20929 0.2837,5.83435 0.6311,5.83435 0.3474,0 22.2404,-5.81684 48.6504,-12.9263 26.41006,-7.10947 48.30216,-12.9263 48.64956,-12.9263 0.3475,0 0.632,-2.88034 0.632,-6.40082 0,-6.10044 0.3033,-6.48261 6.4631,-8.14127 l 6.4632,-1.73965 0,-48.4113 c 0,-26.62623 -0.5505,-48.41208 -1.2229,-48.41208 -0.6723,0 -3.5422,0.66546 -6.3771,1.47851 -5.1021,1.46325 -5.1591,1.41635 -5.6443,-4.63513 l -0.4899,-6.11365 z m -39.3494,33.76586 c 5.4282,-0.0143 4.5827,7.19675 4.2352,37.25305 l -0.4331,37.51104 -12.55166,3.48562 -12.5507,3.48562 0.4323,-38.16114 0.4332,-38.16194 9.6947,-2.70612 c 5.0384,-1.40631 8.44816,-2.70012 10.74006,-2.70613 z m -98.96616,3.37043 c -0.2799,0.0176 -0.6026,0.0925 -0.9728,0.20276 -1.5956,0.47525 -25.0777,6.74863 -52.18252,13.94169 -27.10481,7.19306 -50.55393,13.45717 -52.10913,13.9196 -2.04735,0.60877 -2.82762,2.5294 -2.82762,6.96098 0,5.51921 -0.51593,6.2685 -5.25131,7.62608 l -5.25131,1.50533 -0.42762,48.81761 c -0.23521,26.84972 -0.23082,48.81761 0.0103,48.81761 0.24107,0 2.79657,-0.67632 5.67893,-1.50297 l 5.24105,-1.50297 0,6.19887 0,6.19883 20.60129,-5.51086 c 11.33072,-3.03083 36.05228,-9.6346 54.93674,-14.67543 l 34.3355,-9.16534 0,-11.78231 c 0,-8.73482 -0.5224,-11.59472 -2.0198,-11.05804 -4.4466,1.59379 -68.96442,18.56341 -70.57701,18.56341 -1.08226,0 -1.72938,-4.74384 -1.72938,-12.67226 l 0,-12.67304 13.33024,-3.57398 c 7.33164,-1.96591 15.69332,-4.31838 18.58155,-5.22686 l 5.2513,-1.65129 0,-11.18506 c 0,-6.15187 -0.5454,-11.17634 -1.2119,-11.16535 -0.6665,0.0109 -7.75093,1.8288 -15.74283,4.03947 -21.13993,5.84759 -20.20836,6.22291 -20.20836,-8.14994 0,-9.63199 0.53561,-12.37487 2.56882,-13.1551 1.41285,-0.54215 17.95446,-5.10545 36.75917,-10.14127 l 34.1903,-9.15587 0.4773,-11.75312 c 0.352,-8.66687 0.2704,-10.95571 -1.185,-11.08881 -0.084,-0.008 -0.1726,-0.008 -0.2659,-0.002 z m -159.39332,43.18208 c -0.66652,-0.0258 -25.38305,6.33639 -54.92495,14.13814 l -53.7123,14.18469 -0.0126,60.99597 c -0.007,33.54779 0.4135,60.99598 0.93334,60.99598 0.51984,0 11.06285,-2.66299 23.42892,-5.91798 l 22.48375,-5.91798 0,-49.64918 0,-49.64995 12.63201,-3.4083 c 6.94782,-1.87472 13.1282,-3.4091 13.7342,-3.4091 0.60599,0 1.10217,22.19053 1.10217,49.31229 l 0,49.31309 3.63552,-0.94123 c 1.99954,-0.51754 12.36078,-3.30646 23.02498,-6.19727 l 19.38944,-5.25605 0.42446,-55.12692 0.42525,-55.12691 -5.26156,1.50928 c -2.89396,0.82997 -5.44852,1.50849 -5.67656,1.50849 -0.22804,0 -0.4142,-2.54487 -0.4142,-5.65526 0,-3.11039 -0.54533,-5.67603 -1.21184,-5.7018 z"
         style="color:#000000;clip-rule:nonzero;display:inline;overflow:visible;visibility:visible;opacity:1;isolation:auto;mix-blend-mode:normal;color-interpolation:sRGB;color-interpolation-filters:linearRGB;solid-color:#000000;solid-opacity:1;fill:url(#linearGradient4219-3);fill-opacity:1;fill-rule:nonzero;stroke:#a7ff00;stroke-width:4.03946877;stroke-linecap:butt;stroke-linejoin:miter;stroke-miterlimit:4;stroke-dasharray:none;stroke-dashoffset:0;stroke-opacity:1;color-rendering:auto;image-rendering:auto;shape-rendering:auto;text-rendering:auto;enable-background:accumulate"
         inkscape:connector-curvature="0" />
      <path
         id="path4199-4-9"
         d="m 1439.2894,449.32922 -48.8019,13.0549 -48.8009,13.05569 -0.4805,6.43238 c -0.4292,5.74916 -1.0371,6.57528 -5.7309,7.78387 l -5.2514,1.35227 0,48.50045 0,48.50045 5.6553,-1.06115 c 5.6149,-1.05338 5.6553,-1.01877 5.6553,4.77478 0,3.20929 0.2837,5.83435 0.6311,5.83435 0.3474,0 22.2403,-5.81684 48.6503,-12.9263 26.41,-7.10947 48.3021,-12.9263 48.6495,-12.9263 0.3475,0 0.632,-2.88034 0.632,-6.40082 0,-6.10044 0.3033,-6.48261 6.4631,-8.14127 l 6.4632,-1.73965 0,-48.4113 c 0,-26.62623 -0.5505,-48.41208 -1.2229,-48.41208 -0.6723,0 -3.5422,0.66546 -6.3771,1.47851 -5.1021,1.46325 -5.1591,1.41635 -5.6443,-4.63513 l -0.4899,-6.11365 z m -39.3494,33.76586 c 5.4282,-0.0143 4.5827,7.19675 4.2352,37.25305 l -0.4331,37.51104 -12.5516,3.48562 -12.5507,3.48562 0.4323,-38.16114 0.4332,-38.16194 9.6946,-2.70612 c 5.0385,-1.40631 8.4482,-2.70012 10.7401,-2.70613 z m -98.966,3.37043 c -0.2799,0.0176 -0.6026,0.0925 -0.9728,0.20276 -1.5956,0.47525 -25.0777,6.74863 -52.1825,13.94169 -27.1048,7.19306 -50.554,13.45717 -52.1092,13.9196 -2.0473,0.60877 -2.8276,2.5294 -2.8276,6.96098 0,5.51921 -0.5159,6.2685 -5.2513,7.62608 l -5.2513,1.50533 -0.4276,48.81761 c -0.2352,26.84972 -0.2308,48.81761 0.01,48.81761 0.2411,0 2.7966,-0.67632 5.6789,-1.50298 l 5.2411,-1.50297 0,6.19889 0,6.19882 20.6013,-5.51086 c 11.3307,-3.03084 36.0522,-9.63461 54.9367,-14.67543 l 34.3355,-9.16534 0,-11.78231 c 0,-8.73482 -0.5224,-11.59472 -2.0198,-11.05804 -4.4466,1.59379 -68.9644,18.56341 -70.577,18.56341 -1.0823,0 -1.7294,-4.74384 -1.7294,-12.67226 l 0,-12.67304 13.3302,-3.57398 c 7.3317,-1.96591 15.6934,-4.31838 18.5816,-5.22686 l 5.2513,-1.65129 0,-11.18506 c 0,-6.15187 -0.5454,-11.17634 -1.2119,-11.16535 -0.6665,0.011 -7.7509,1.8288 -15.7428,4.03947 -21.14,5.84759 -20.2084,6.22291 -20.2084,-8.14994 0,-9.63199 0.5356,-12.37487 2.5688,-13.1551 1.4129,-0.54215 17.9545,-5.10545 36.7592,-10.14127 l 34.1903,-9.15587 0.4773,-11.75312 c 0.352,-8.66687 0.2704,-10.95571 -1.185,-11.08881 -0.084,-0.008 -0.1726,-0.008 -0.2659,-0.002 z m -159.3933,43.18208 c -0.6665,-0.0258 -25.3831,6.33639 -54.925,14.13814 l -53.7123,14.18469 -0.013,60.99597 c -0.01,33.54779 0.4135,60.99598 0.9334,60.99598 0.5198,0 11.0628,-2.66299 23.4289,-5.91798 l 22.4837,-5.91797 0,-49.64919 0,-49.64995 12.632,-3.4083 c 6.9479,-1.87472 13.1282,-3.4091 13.7342,-3.4091 0.606,0 1.1022,22.19053 1.1022,49.31229 l 0,49.31309 3.6355,-0.94123 c 1.9996,-0.51755 12.3608,-3.30646 23.025,-6.19728 l 19.3895,-5.25605 0.4244,-55.12691 0.4253,-55.12691 -5.2616,1.50928 c -2.894,0.82997 -5.4485,1.50849 -5.6766,1.50849 -0.228,0 -0.4142,-2.54487 -0.4142,-5.65526 0,-3.11039 -0.5453,-5.67603 -1.2118,-5.7018 z"
         style="color:#000000;clip-rule:nonzero;display:inline;overflow:visible;visibility:visible;opacity:1;isolation:auto;mix-blend-mode:normal;color-interpolation:sRGB;color-interpolation-filters:linearRGB;solid-color:#000000;solid-opacity:1;fill:url(#linearGradient4219-3-2);fill-opacity:1;fill-rule:nonzero;stroke:#a7ff00;stroke-width:4.03946877;stroke-linecap:butt;stroke-linejoin:miter;stroke-miterlimit:4;stroke-dasharray:none;stroke-dashoffset:0;stroke-opacity:1;color-rendering:auto;image-rendering:auto;shape-rendering:auto;text-rendering:auto;enable-background:accumulate"
         inkscape:connector-curvature="0" />
      <path
         id="path4199-4-6"
         d="m 1261.2658,365.74029 -33.5018,8.96201 -33.5013,8.96255 -0.3298,4.41574 c -0.2946,3.94672 -0.712,4.51384 -3.9342,5.34352 l -3.605,0.92832 0,33.29489 0,33.2949 3.8823,-0.72847 c 3.8545,-0.72313 3.8823,-0.69937 3.8823,3.27783 0,2.20313 0.1947,4.0052 0.4332,4.0052 0.2385,0 15.2677,-3.99318 33.3978,-8.87373 18.1301,-4.88056 33.1588,-8.87373 33.3973,-8.87373 0.2385,0 0.4338,-1.97731 0.4338,-4.39408 0,-4.18786 0.2082,-4.45022 4.4368,-5.58887 l 4.4369,-1.19424 0,-33.2337 c 0,-18.27854 -0.3779,-33.23423 -0.8395,-33.23423 -0.4615,0 -2.4316,0.45683 -4.3778,1.01498 -3.5025,1.0045 -3.5416,0.9723 -3.8747,-3.18196 l -0.3363,-4.19693 z m -27.0128,23.1798 c 3.7264,-0.01 3.1459,4.94047 2.9074,25.57371 l -0.2973,25.75081 -8.6165,2.39284 -8.6159,2.39283 0.2968,-26.19711 0.2973,-26.19765 6.6553,-1.85771 c 3.4588,-0.96541 5.7995,-1.8536 7.3729,-1.85772 z m -67.9389,2.31375 c -0.1921,0.0121 -0.4137,0.0635 -0.6678,0.13919 -1.0954,0.32626 -17.2155,4.63285 -35.8226,9.57078 -18.6071,4.93794 -34.7046,9.23817 -35.7722,9.55562 -1.4055,0.41791 -1.9411,1.7364 -1.9411,4.77862 0,3.78886 -0.3542,4.30324 -3.605,5.2352 l -3.6049,1.03339 -0.2936,33.51262 c -0.1614,18.43196 -0.1585,33.51262 0.01,33.51262 0.1654,0 1.9197,-0.46428 3.8985,-1.03177 l 3.5978,-1.03177 0,4.25545 0,4.25541 14.1426,-3.78313 c 7.7784,-2.08063 24.7494,-6.61403 37.7133,-10.07449 l 23.5709,-6.29188 0,-8.08839 c 0,-5.99634 -0.3586,-7.95962 -1.3866,-7.5912 -3.0525,1.09412 -47.3431,12.74353 -48.4501,12.74353 -0.743,0 -1.1872,-3.25658 -1.1872,-8.69933 l 0,-8.69987 9.151,-2.45349 c 5.0331,-1.34957 10.7732,-2.96451 12.756,-3.58817 l 3.6049,-1.13359 0,-7.67839 c 0,-4.22317 -0.3744,-7.6724 -0.8319,-7.66486 -0.4576,0.008 -5.321,1.25545 -10.8073,2.77304 -14.5123,4.01429 -13.8727,4.27195 -13.8727,-5.59482 0,-6.61223 0.3676,-8.49518 1.7634,-9.03079 0.9699,-0.37218 12.3255,-3.50483 25.2347,-6.96185 l 23.4712,-6.28538 0.3276,-8.06835 c 0.2417,-5.94969 0.1856,-7.52095 -0.8135,-7.61232 -0.058,-0.005 -0.1185,-0.005 -0.1825,-0.001 z m -109.4213,29.64391 c -0.4576,-0.0177 -17.4252,4.34985 -37.7053,9.70564 l -36.8727,9.7376 -0.01,41.8729 c -0.01,23.0301 0.2839,41.8729 0.6407,41.8729 0.3569,0 7.5946,-1.8281 16.0837,-4.06261 l 15.4348,-4.0626 0,-34.08349 0,-34.08402 8.6717,-2.33975 c 4.7695,-1.28697 9.0123,-2.3403 9.4283,-2.3403 0.416,0 0.7567,15.2335 0.7567,33.85221 l 0,33.85277 2.4957,-0.64614 c 1.3727,-0.3553 8.4855,-2.26984 15.8063,-4.25435 l 13.3106,-3.60821 0.2914,-37.84387 0.2919,-37.84387 -3.612,1.0361 c -1.9867,0.56976 -3.7403,1.03556 -3.8969,1.03556 -0.1565,0 -0.2843,-1.74702 -0.2843,-3.88226 0,-2.13524 -0.3744,-3.89652 -0.8319,-3.91421 z"
         style="color:#000000;clip-rule:nonzero;display:inline;overflow:visible;visibility:visible;opacity:1;isolation:auto;mix-blend-mode:normal;color-interpolation:sRGB;color-interpolation-filters:linearRGB;solid-color:#000000;solid-opacity:1;fill:url(#linearGradient4219-3-0);fill-opacity:1;fill-rule:nonzero;stroke:#a7ff00;stroke-width:2.77304006;stroke-linecap:butt;stroke-linejoin:miter;stroke-miterlimit:4;stroke-dasharray:none;stroke-dashoffset:0;stroke-opacity:1;color-rendering:auto;image-rendering:auto;shape-rendering:auto;text-rendering:auto;enable-background:accumulate"
         inkscape:connector-curvature="0" />
      <path
         id="path4199-4-68"
         d="m 936.04711,545.62121 -32.8438,8.78599 -32.8433,8.78653 -0.3234,4.32901 c -0.2888,3.86921 -0.6979,4.42519 -3.8569,5.23858 l -3.5342,0.91008 0,32.64098 0,32.64097 3.8061,-0.71415 c 3.7788,-0.70893 3.806,-0.68564 3.806,3.21344 0,2.15986 0.1909,3.92654 0.4247,3.92654 0.2338,0 14.9679,-3.91476 32.7419,-8.69945 17.774,-4.7847 32.5075,-8.69944 32.7413,-8.69944 0.2339,0 0.4253,-1.93848 0.4253,-4.30778 0,-4.10562 0.2042,-4.36282 4.3497,-5.4791 l 4.3498,-1.17079 0,-32.58098 c 0,-17.91955 -0.3705,-32.58151 -0.823,-32.58151 -0.4525,0 -2.3839,0.44786 -4.2918,0.99505 -3.4338,0.98477 -3.4721,0.95321 -3.7987,-3.11946 l -0.3297,-4.11451 z m -26.4823,22.72454 c 3.6532,-0.01 3.0843,4.84344 2.8503,25.07144 l -0.2914,25.24506 -8.4473,2.34584 -8.4467,2.34583 0.291,-25.68258 0.2915,-25.68312 6.5246,-1.82123 c 3.3908,-0.94645 5.6856,-1.81719 7.228,-1.82124 z m -66.6045,2.26832 c -0.1884,0.0118 -0.4056,0.0623 -0.6547,0.13645 -1.0738,0.31985 -16.8774,4.54186 -35.119,9.38281 -18.2416,4.84096 -34.023,9.05672 -35.0697,9.36794 -1.3778,0.40971 -1.903,1.7023 -1.903,4.68477 0,3.71444 -0.3472,4.21872 -3.5341,5.13238 l -3.5342,1.01309 -0.2878,32.85442 c -0.1583,18.06996 -0.1553,32.85443 0.01,32.85443 0.1623,0 1.8822,-0.45516 3.822,-1.01151 l 3.5273,-1.0115 0,4.17187 0,4.17183 13.8647,-3.70883 c 7.6256,-2.03977 24.2633,-6.48413 36.9726,-9.87662 l 23.108,-6.1683 0,-7.92954 c 0,-5.87857 -0.3516,-7.80329 -1.3594,-7.4421 -2.9926,1.07263 -46.4133,12.49324 -47.4986,12.49324 -0.7283,0 -1.1638,-3.19262 -1.1638,-8.52848 l 0,-8.529 8.9712,-2.4053 c 4.9343,-1.32306 10.5617,-2.90628 12.5055,-3.51769 l 3.5342,-1.11133 0,-7.52758 c 0,-4.14023 -0.3671,-7.52172 -0.8157,-7.51432 -0.4485,0.007 -5.2163,1.23079 -10.5949,2.71857 -14.2273,3.93545 -13.6003,4.18804 -13.6003,-5.48493 0,-6.48237 0.3604,-8.32834 1.7288,-8.85343 0.9509,-0.36487 12.0834,-3.43599 24.739,-6.82512 l 23.0102,-6.16193 0.3213,-7.90989 c 0.2369,-5.83283 0.1819,-7.37323 -0.7975,-7.46281 -0.057,-0.005 -0.1162,-0.005 -0.179,-0.001 z m -107.2723,29.06169 c -0.4486,-0.0174 -17.0829,4.26441 -36.9647,9.51502 l -36.1486,9.54635 -0.01,41.0505 c -0.01,22.57779 0.2783,41.05052 0.6281,41.05052 0.3499,0 7.4454,-1.79221 15.7677,-3.98283 l 15.1317,-3.98281 0,-33.41408 0,-33.4146 8.5014,-2.2938 c 4.6759,-1.26169 8.8353,-2.29433 9.2432,-2.29433 0.4078,0 0.7418,14.9343 0.7418,33.18735 l 0,33.18788 2.4467,-0.63345 c 1.3456,-0.34831 8.3188,-2.22526 15.4959,-4.17079 l 13.0491,-3.53734 0.2857,-37.10061 0.2862,-37.10061 -3.5411,1.01575 c -1.9476,0.55858 -3.6669,1.01522 -3.8203,1.01522 -0.1535,0 -0.2788,-1.7127 -0.2788,-3.80601 0,-2.0933 -0.367,-3.81999 -0.8155,-3.83733 z"
         style="color:#000000;clip-rule:nonzero;display:inline;overflow:visible;visibility:visible;opacity:1;isolation:auto;mix-blend-mode:normal;color-interpolation:sRGB;color-interpolation-filters:linearRGB;solid-color:#000000;solid-opacity:1;fill:url(#linearGradient4219-3-3);fill-opacity:1;fill-rule:nonzero;stroke:#a7ff00;stroke-width:2.71857691;stroke-linecap:butt;stroke-linejoin:miter;stroke-miterlimit:4;stroke-dasharray:none;stroke-dashoffset:0;stroke-opacity:1;color-rendering:auto;image-rendering:auto;shape-rendering:auto;text-rendering:auto;enable-background:accumulate"
         inkscape:connector-curvature="0" />
      <path
         id="path4199-4-6-8"
         d="m 1339.918,656.65469 -33.5018,8.96201 -33.5013,8.96255 -0.3298,4.41574 c -0.2946,3.94672 -0.712,4.51384 -3.9342,5.34352 l -3.605,0.92832 0,33.29489 0,33.2949 3.8823,-0.72847 c 3.8545,-0.72313 3.8823,-0.69937 3.8823,3.27783 0,2.20313 0.1947,4.0052 0.4332,4.0052 0.2385,0 15.2677,-3.99318 33.3978,-8.87373 18.1301,-4.88056 33.1588,-8.87373 33.3973,-8.87373 0.2385,0 0.4338,-1.97731 0.4338,-4.39408 0,-4.18786 0.2082,-4.45022 4.4368,-5.58887 l 4.4369,-1.19424 0,-33.2337 c 0,-18.27854 -0.3779,-33.23423 -0.8395,-33.23423 -0.4615,0 -2.4316,0.45683 -4.3778,1.01498 -3.5025,1.0045 -3.5416,0.9723 -3.8747,-3.18196 l -0.3363,-4.19693 z m -27.0128,23.1798 c 3.7264,-0.0101 3.1459,4.94047 2.9074,25.57371 l -0.2973,25.75081 -8.6165,2.39284 -8.6159,2.39283 0.2968,-26.19711 0.2973,-26.19765 6.6553,-1.85771 c 3.4588,-0.96541 5.7995,-1.8536 7.3729,-1.85772 z m -67.9389,2.31375 c -0.1921,0.0122 -0.4137,0.0635 -0.6678,0.13918 -1.0954,0.32626 -17.2155,4.63285 -35.8226,9.57078 -18.6071,4.93794 -34.7046,9.23817 -35.7722,9.55562 -1.4055,0.41791 -1.9411,1.7364 -1.9411,4.77862 0,3.78886 -0.3542,4.30324 -3.605,5.2352 l -3.6049,1.03339 -0.2936,33.51262 c -0.1614,18.43196 -0.1585,33.51262 0.01,33.51262 0.1654,0 1.9197,-0.46428 3.8985,-1.03177 l 3.5978,-1.03177 0,4.25545 0,4.25541 14.1426,-3.78313 c 7.7784,-2.08063 24.7494,-6.61403 37.7133,-10.07449 l 23.5709,-6.29188 0,-8.08839 c 0,-5.99634 -0.3586,-7.95962 -1.3866,-7.5912 -3.0525,1.09412 -47.3431,12.74353 -48.4501,12.74353 -0.743,0 -1.1872,-3.25658 -1.1872,-8.69933 l 0,-8.69987 9.151,-2.45349 c 5.0331,-1.34957 10.7732,-2.96451 12.756,-3.58817 l 3.6049,-1.13359 0,-7.67839 c 0,-4.22317 -0.3744,-7.6724 -0.8319,-7.66486 -0.4576,0.008 -5.321,1.25545 -10.8073,2.77304 -14.5123,4.01429 -13.8727,4.27195 -13.8727,-5.59482 0,-6.61223 0.3676,-8.49518 1.7634,-9.03079 0.9699,-0.37218 12.3255,-3.50483 25.2347,-6.96185 l 23.4712,-6.28538 0.3276,-8.06835 c 0.2417,-5.94969 0.1856,-7.52095 -0.8135,-7.61232 -0.058,-0.005 -0.1186,-0.005 -0.1825,-10e-4 z m -109.4213,29.64391 c -0.4576,-0.0177 -17.4252,4.34985 -37.7053,9.70564 l -36.8727,9.7376 -0.01,41.8729 c -0.01,23.0301 0.2839,41.8729 0.6407,41.8729 0.3569,0 7.5946,-1.8281 16.0837,-4.06261 l 15.4348,-4.0626 0,-34.08349 0,-34.08402 8.6717,-2.33975 c 4.7695,-1.28697 9.0123,-2.3403 9.4283,-2.3403 0.416,0 0.7567,15.2335 0.7567,33.85221 l 0,33.85277 2.4957,-0.64614 c 1.3727,-0.3553 8.4855,-2.26984 15.8063,-4.25435 l 13.3106,-3.60821 0.2914,-37.84387 0.2919,-37.84387 -3.612,1.0361 c -1.9867,0.56976 -3.7403,1.03556 -3.8969,1.03556 -0.1565,0 -0.2843,-1.74702 -0.2843,-3.88226 0,-2.13524 -0.3744,-3.89652 -0.8319,-3.91421 z"
         style="color:#000000;clip-rule:nonzero;display:inline;overflow:visible;visibility:visible;opacity:1;isolation:auto;mix-blend-mode:normal;color-interpolation:sRGB;color-interpolation-filters:linearRGB;solid-color:#000000;solid-opacity:1;fill:url(#linearGradient4219-3-0-5);fill-opacity:1;fill-rule:nonzero;stroke:#a7ff00;stroke-width:2.77304006;stroke-linecap:butt;stroke-linejoin:miter;stroke-miterlimit:4;stroke-dasharray:none;stroke-dashoffset:0;stroke-opacity:1;color-rendering:auto;image-rendering:auto;shape-rendering:auto;text-rendering:auto;enable-background:accumulate"
         inkscape:connector-curvature="0" />
      <path
         id="path4199-4-6-8-9"
         d="m 1510.9842,746.68547 -33.5018,8.96201 -33.5013,8.96255 -0.3298,4.41574 c -0.2946,3.94672 -0.712,4.51384 -3.9342,5.34352 l -3.605,0.92832 0,33.29489 0,33.2949 3.8823,-0.72847 c 3.8545,-0.72313 3.8823,-0.69937 3.8823,3.27783 0,2.20313 0.1947,4.0052 0.4332,4.0052 0.2385,0 15.2677,-3.99318 33.3978,-8.87373 18.1301,-4.88056 33.1588,-8.87373 33.3973,-8.87373 0.2385,0 0.4338,-1.97731 0.4338,-4.39408 0,-4.18786 0.2082,-4.45022 4.4368,-5.58887 l 4.4369,-1.19424 0,-33.2337 c 0,-18.27854 -0.3779,-33.23423 -0.8395,-33.23423 -0.4615,0 -2.4316,0.45683 -4.3778,1.01498 -3.5025,1.0045 -3.5416,0.9723 -3.8747,-3.18196 l -0.3363,-4.19693 z m -27.0128,23.1798 c 3.7264,-0.0101 3.1459,4.94047 2.9074,25.57371 l -0.2973,25.75081 -8.6165,2.39284 -8.6159,2.39283 0.2968,-26.19711 0.2973,-26.19765 6.6553,-1.85771 c 3.4588,-0.96541 5.7995,-1.8536 7.3729,-1.85772 z m -67.9389,2.31375 c -0.1921,0.0122 -0.4137,0.0635 -0.6678,0.13918 -1.0954,0.32626 -17.2155,4.63285 -35.8226,9.57078 -18.6071,4.93794 -34.7046,9.23817 -35.7722,9.55562 -1.4055,0.41791 -1.9411,1.7364 -1.9411,4.77862 0,3.78886 -0.3542,4.30324 -3.605,5.2352 l -3.6049,1.03339 -0.2936,33.51262 c -0.1614,18.43196 -0.1585,33.51262 0.01,33.51262 0.1655,0 1.9197,-0.46428 3.8985,-1.03177 l 3.5978,-1.03177 0,4.25545 0,4.25541 14.1426,-3.78313 c 7.7784,-2.08063 24.7494,-6.61403 37.7133,-10.07449 l 23.5709,-6.29188 0,-8.08839 c 0,-5.99634 -0.3586,-7.95962 -1.3866,-7.5912 -3.0525,1.09412 -47.3431,12.74353 -48.4501,12.74353 -0.743,0 -1.1872,-3.25658 -1.1872,-8.69933 l 0,-8.69987 9.151,-2.45349 c 5.0331,-1.34957 10.7732,-2.96451 12.756,-3.58817 l 3.6049,-1.13359 0,-7.67839 c 0,-4.22317 -0.3744,-7.6724 -0.8319,-7.66486 -0.4576,0.008 -5.321,1.25545 -10.8073,2.77304 -14.5123,4.01429 -13.8727,4.27195 -13.8727,-5.59482 0,-6.61223 0.3676,-8.49518 1.7634,-9.03079 0.9699,-0.37218 12.3255,-3.50483 25.2347,-6.96185 l 23.4712,-6.28538 0.3276,-8.06835 c 0.2417,-5.94969 0.1856,-7.52095 -0.8135,-7.61232 -0.058,-0.005 -0.1185,-0.005 -0.1825,-0.001 z m -109.4213,29.64391 c -0.4576,-0.0177 -17.4252,4.34985 -37.7053,9.70564 l -36.8727,9.7376 -0.01,41.8729 c -0.01,23.0301 0.2839,41.8729 0.6407,41.8729 0.3569,0 7.5946,-1.8281 16.0837,-4.06261 l 15.4348,-4.0626 0,-34.08349 0,-34.08402 8.6717,-2.33975 c 4.7695,-1.28697 9.0123,-2.3403 9.4283,-2.3403 0.416,0 0.7567,15.2335 0.7567,33.85221 l 0,33.85277 2.4957,-0.64614 c 1.3727,-0.3553 8.4855,-2.26984 15.8063,-4.25435 l 13.3106,-3.60821 0.2914,-37.84387 0.2919,-37.84387 -3.612,1.0361 c -1.9867,0.56976 -3.7403,1.03556 -3.8969,1.03556 -0.1565,0 -0.2843,-1.74702 -0.2843,-3.88226 0,-2.13524 -0.3744,-3.89652 -0.8319,-3.91421 z"
         style="color:#000000;clip-rule:nonzero;display:inline;overflow:visible;visibility:visible;opacity:1;isolation:auto;mix-blend-mode:normal;color-interpolation:sRGB;color-interpolation-filters:linearRGB;solid-color:#000000;solid-opacity:1;fill:url(#linearGradient4219-3-0-5-7);fill-opacity:1;fill-rule:nonzero;stroke:#a7ff00;stroke-width:2.77304006;stroke-linecap:butt;stroke-linejoin:miter;stroke-miterlimit:4;stroke-dasharray:none;stroke-dashoffset:0;stroke-opacity:1;color-rendering:auto;image-rendering:auto;shape-rendering:auto;text-rendering:auto;enable-background:accumulate"
         inkscape:connector-curvature="0" />
    </g>
  </g>
</svg>
